<svg width="185" height="23" viewBox="0 0 185 23" fill="none" xmlns="http://www.w3.org/2000/svg">
<g filter="url(#filter0_d_154_11786)">
<path d="M10.3935 14.785C9.39283 14.785 8.49033 14.6108 7.686 14.2625C6.888 13.9142 6.22933 13.417 5.71 12.771C5.197 12.1187 4.87083 11.346 4.7315 10.453L7.1065 10.092C7.30917 10.9027 7.724 11.5297 8.351 11.973C8.98433 12.4163 9.71267 12.638 10.536 12.638C11.0237 12.638 11.4828 12.562 11.9135 12.41C12.3442 12.258 12.6925 12.0363 12.9585 11.745C13.2308 11.4537 13.367 11.0958 13.367 10.6715C13.367 10.4815 13.3353 10.3073 13.272 10.149C13.2087 9.98433 13.1137 9.83867 12.987 9.712C12.8667 9.58533 12.7083 9.47133 12.512 9.37C12.322 9.26233 12.1003 9.1705 11.847 9.0945L8.313 8.0495C8.009 7.96083 7.67967 7.84367 7.325 7.698C6.97667 7.546 6.64417 7.34017 6.3275 7.0805C6.01717 6.8145 5.76067 6.47883 5.558 6.0735C5.36167 5.66183 5.2635 5.15517 5.2635 4.5535C5.2635 3.67317 5.48517 2.93533 5.9285 2.34C6.37817 1.73833 6.97983 1.28867 7.7335 0.991C8.4935 0.693333 9.33583 0.547666 10.2605 0.553999C11.1978 0.560332 12.0338 0.721832 12.7685 1.0385C13.5032 1.34883 14.1175 1.80167 14.6115 2.397C15.1055 2.99233 15.4538 3.71117 15.6565 4.5535L13.196 4.981C13.0947 4.49967 12.8983 4.09117 12.607 3.7555C12.322 3.4135 11.9705 3.15383 11.5525 2.9765C11.1408 2.79917 10.7007 2.70417 10.232 2.6915C9.776 2.68517 9.35167 2.75483 8.959 2.9005C8.57267 3.03983 8.25917 3.2425 8.0185 3.5085C7.78417 3.7745 7.667 4.08483 7.667 4.4395C7.667 4.77517 7.76833 5.05067 7.971 5.266C8.17367 5.475 8.42383 5.64283 8.7215 5.7695C9.0255 5.88983 9.33267 5.99117 9.643 6.0735L12.094 6.7575C12.4297 6.84617 12.8065 6.9665 13.2245 7.1185C13.6425 7.2705 14.0447 7.48267 14.431 7.755C14.8173 8.02733 15.134 8.38517 15.381 8.8285C15.6343 9.27183 15.761 9.8355 15.761 10.5195C15.761 11.2288 15.6122 11.8527 15.3145 12.391C15.0232 12.923 14.6273 13.3663 14.127 13.721C13.6267 14.0757 13.0535 14.3417 12.4075 14.519C11.7678 14.6963 11.0965 14.785 10.3935 14.785ZM21.1043 14.5V2.967H16.6773V0.819999H27.8208V2.967H23.3938V14.5H21.1043ZM29.3398 14.5V0.819999H34.9923C35.1253 0.819999 35.2963 0.826333 35.5053 0.838999C35.7143 0.845333 35.9074 0.864333 36.0848 0.896C36.8764 1.01633 37.5288 1.27917 38.0418 1.6845C38.5611 2.08983 38.9443 2.60283 39.1913 3.2235C39.4446 3.83783 39.5713 4.52183 39.5713 5.2755C39.5713 6.39017 39.2894 7.34967 38.7258 8.154C38.1621 8.952 37.2976 9.446 36.1323 9.636L35.1538 9.7215H31.6293V14.5H29.3398ZM37.1963 14.5L34.4983 8.933L36.8258 8.42L39.7898 14.5H37.1963ZM31.6293 7.584H34.8973C35.0239 7.584 35.1664 7.57767 35.3248 7.565C35.4831 7.55233 35.6288 7.527 35.7618 7.489C36.1418 7.394 36.4394 7.22617 36.6548 6.9855C36.8764 6.74483 37.0316 6.4725 37.1203 6.1685C37.2153 5.8645 37.2628 5.56683 37.2628 5.2755C37.2628 4.98417 37.2153 4.6865 37.1203 4.3825C37.0316 4.07217 36.8764 3.79667 36.6548 3.556C36.4394 3.31533 36.1418 3.1475 35.7618 3.0525C35.6288 3.0145 35.4831 2.99233 35.3248 2.986C35.1664 2.97333 35.0239 2.967 34.8973 2.967H31.6293V7.584ZM40.9327 14.5L45.2457 0.819999H48.5992L52.9122 14.5H50.5562L46.6422 2.226H47.1552L43.2887 14.5H40.9327ZM43.3362 11.536V9.3985H50.5182V11.536H43.3362ZM54.8198 14.5V0.819999H57.1093V14.5H54.8198ZM65.598 14.785C64.7113 14.785 63.8785 14.6298 63.0995 14.3195C62.3268 14.0028 61.646 13.5405 61.057 12.9325C60.4743 12.3245 60.0183 11.5803 59.689 10.7C59.3597 9.81333 59.195 8.8 59.195 7.66C59.195 6.16533 59.4737 4.88917 60.031 3.8315C60.5883 2.7675 61.3515 1.95367 62.3205 1.39C63.2895 0.819999 64.382 0.535 65.598 0.535C67.2827 0.535 68.6158 0.927666 69.5975 1.713C70.5855 2.492 71.2537 3.58767 71.602 5L69.265 5.3705C69.0053 4.55983 68.581 3.91383 67.992 3.4325C67.403 2.94483 66.6525 2.701 65.7405 2.701C64.8222 2.68833 64.059 2.88783 63.451 3.2995C62.843 3.71117 62.3838 4.29067 62.0735 5.038C61.7695 5.78533 61.6175 6.65933 61.6175 7.66C61.6175 8.66067 61.7695 9.5315 62.0735 10.2725C62.3775 11.0072 62.8335 11.5803 63.4415 11.992C64.0558 12.4037 64.8222 12.6158 65.7405 12.6285C66.4308 12.6348 67.0357 12.5113 67.555 12.258C68.0743 11.9983 68.4987 11.6088 68.828 11.0895C69.1573 10.5638 69.379 9.90833 69.493 9.123H67.08V7.3275H71.925C71.9377 7.42883 71.9472 7.57767 71.9535 7.774C71.9598 7.97033 71.963 8.0875 71.963 8.1255C71.963 9.4175 71.7065 10.567 71.1935 11.574C70.6868 12.5747 69.9585 13.36 69.0085 13.93C68.0585 14.5 66.9217 14.785 65.598 14.785ZM73.871 14.5V0.819999H76.1605V6.577H82.6395V0.819999H84.9195V14.5H82.6395V8.724H76.1605V14.5H73.871ZM90.8699 14.5V2.967H86.4429V0.819999H97.5864V2.967H93.1594V14.5H90.8699ZM102.334 14.5V0.819999H110.57V3.1095H104.623V6.52H109.43V8.8H104.623V14.5H102.334ZM112.469 14.5V0.819999H114.759V14.5H112.469ZM117.604 14.5V0.819999H119.922L126.268 10.4625V0.819999H128.586V14.5H126.268L119.922 4.8575V14.5H117.604ZM130.292 14.5L134.605 0.819999H137.959L142.272 14.5H139.916L136.002 2.226H136.515L132.648 14.5H130.292ZM132.696 11.536V9.3985H139.878V11.536H132.696ZM143.989 14.5V0.819999H146.307L152.653 10.4625V0.819999H154.971V14.5H152.653L146.307 4.8575V14.5H143.989ZM163.412 14.785C162.044 14.785 160.873 14.4873 159.897 13.892C158.922 13.2903 158.172 12.4543 157.646 11.384C157.127 10.3137 156.867 9.07233 156.867 7.66C156.867 6.24767 157.127 5.00633 157.646 3.936C158.172 2.86567 158.922 2.03283 159.897 1.4375C160.873 0.835833 162.044 0.535 163.412 0.535C164.989 0.535 166.304 0.930833 167.355 1.7225C168.406 2.50783 169.144 3.56867 169.568 4.905L167.26 5.5415C166.994 4.6485 166.541 3.95183 165.901 3.4515C165.262 2.94483 164.432 2.6915 163.412 2.6915C162.494 2.6915 161.728 2.89733 161.113 3.309C160.505 3.72067 160.046 4.30017 159.736 5.0475C159.432 5.7885 159.277 6.65933 159.27 7.66C159.27 8.66067 159.422 9.53467 159.726 10.282C160.037 11.023 160.499 11.5993 161.113 12.011C161.728 12.4227 162.494 12.6285 163.412 12.6285C164.432 12.6285 165.262 12.3752 165.901 11.8685C166.541 11.3618 166.994 10.6652 167.26 9.7785L169.568 10.415C169.144 11.7513 168.406 12.8153 167.355 13.607C166.304 14.3923 164.989 14.785 163.412 14.785ZM171.654 14.5V0.819999H180.489V2.967H173.944V6.3395H179.349V8.4865H173.944V12.353H180.489V14.5H171.654Z" fill="white"/>
</g>
<defs>
<filter id="filter0_d_154_11786" x="0.731445" y="0.535156" width="183.758" height="22.25" filterUnits="userSpaceOnUse" color-interpolation-filters="sRGB">
<feFlood flood-opacity="0" result="BackgroundImageFix"/>
<feColorMatrix in="SourceAlpha" type="matrix" values="0 0 0 0 0 0 0 0 0 0 0 0 0 0 0 0 0 0 127 0" result="hardAlpha"/>
<feOffset dy="4"/>
<feGaussianBlur stdDeviation="2"/>
<feComposite in2="hardAlpha" operator="out"/>
<feColorMatrix type="matrix" values="0 0 0 0 0 0 0 0 0 0 0 0 0 0 0 0 0 0 0.25 0"/>
<feBlend mode="normal" in2="BackgroundImageFix" result="effect1_dropShadow_154_11786"/>
<feBlend mode="normal" in="SourceGraphic" in2="effect1_dropShadow_154_11786" result="shape"/>
</filter>
</defs>
</svg>
